<svg xmlns="http://www.w3.org/2000/svg" viewBox="0 0 15 9">
    <g id="prob">
        <rect x="12" y="0" width="1" height="1" fill="#FFFFFF" />
        <rect x="14" y="5" width="1" height="1" fill="#FFFFFF" />
        <rect x="14" y="4" width="1" height="1" fill="#FFFFFF" />
        <rect x="14" y="3" width="1" height="1" fill="#FFFFFF" />
        <rect x="12" y="5" width="1" height="1" fill="#FFFFFF" />
        <rect x="12" y="4" width="1" height="1" fill="#FFFFFF" />
        <rect x="12" y="3" width="1" height="1" fill="#FFFFFF" />
        <rect x="12" y="2" width="1" height="1" fill="#FFFFFF" />
        <rect x="12" y="1" width="1" height="1" fill="#FFFFFF" />
        <rect x="10" y="5" width="1" height="1" fill="#FFFFFF" />
        <rect x="10" y="4" width="1" height="1" fill="#FFFFFF" />
        <rect x="10" y="3" width="1" height="1" fill="#FFFFFF" />
        <rect x="8" y="5" width="1" height="1" fill="#FFFFFF" />
        <rect x="8" y="4" width="1" height="1" fill="#FFFFFF" />
        <rect x="8" y="3" width="1" height="1" fill="#FFFFFF" />
        <rect x="6" y="3" width="1" height="1" fill="#FFFFFF" />
        <rect x="4" y="5" width="1" height="1" fill="#FFFFFF" />
        <rect x="4" y="4" width="1" height="1" fill="#FFFFFF" />
        <rect x="4" y="3" width="1" height="1" fill="#FFFFFF" />
        <rect x="2" y="5" width="1" height="1" fill="#FFFFFF" />
        <rect x="2" y="4" width="1" height="1" fill="#FFFFFF" />
        <rect x="2" y="3" width="1" height="1" fill="#FFFFFF" />
        <rect x="0" y="8" width="1" height="1" fill="#FFFFFF" />
        <rect x="0" y="7" width="1" height="1" fill="#FFFFFF" />
        <rect x="0" y="6" width="1" height="1" fill="#FFFFFF" />
        <rect x="0" y="5" width="1" height="1" fill="#FFFFFF" />
        <rect x="0" y="4" width="1" height="1" fill="#FFFFFF" />
        <rect x="0" y="3" width="1" height="1" fill="#FFFFFF" />
    </g>
</svg>