<svg xmlns="http://www.w3.org/2000/svg" viewBox="0 0 15.5 9.5">
    <g id="prob">
        <rect x="12.25" y="0.25" width="1" height="1" />
        <rect x="14.25" y="5.25" width="1" height="1" />
        <rect x="14.25" y="4.25" width="1" height="1" />
        <rect x="14.25" y="3.25" width="1" height="1" />
        <rect x="12.25" y="5.25" width="1" height="1" />
        <rect x="12.25" y="4.25" width="1" height="1" />
        <rect x="12.25" y="3.25" width="1" height="1" />
        <rect x="12.25" y="2.25" width="1" height="1" />
        <rect x="12.25" y="1.25" width="1" height="1" />
        <rect x="10.25" y="5.25" width="1" height="1" />
        <rect x="10.25" y="4.25" width="1" height="1" />
        <rect x="10.25" y="3.25" width="1" height="1" />
        <rect x="8.25" y="5.25" width="1" height="1" />
        <rect x="8.25" y="4.25" width="1" height="1" />
        <rect x="8.25" y="3.25" width="1" height="1" />
        <rect x="6.25" y="3.25" width="1" height="1" />
        <rect x="4.25" y="5.25" width="1" height="1" />
        <rect x="4.25" y="4.25" width="1" height="1" />
        <rect x="4.25" y="3.25" width="1" height="1" />
        <rect x="2.25" y="5.25" width="1" height="1" />
        <rect x="2.25" y="4.25" width="1" height="1" />
        <rect x="2.25" y="3.25" width="1" height="1" />
        <rect x="0.25" y="8.25" width="1" height="1" />
        <rect x="0.25" y="7.25" width="1" height="1" />
        <rect x="0.25" y="6.25" width="1" height="1" />
        <rect x="0.25" y="5.25" width="1" height="1" />
        <rect x="0.25" y="4.25" width="1" height="1" />
        <rect x="0.25" y="3.25" width="1" height="1" />
    </g>
</svg>